<?xml version="1.0" encoding="utf-8"?>
<!-- Generator: Adobe Illustrator 27.2.0, SVG Export Plug-In . SVG Version: 6.00 Build 0)  -->
<svg version="1.1" xmlns="http://www.w3.org/2000/svg" xmlns:xlink="http://www.w3.org/1999/xlink" x="0px" y="0px"
	 viewBox="0 0 650 500" style="enable-background:new 0 0 650 500;" xml:space="preserve">
<style type="text/css">
	.st0{fill:#614AD3;}
	.st1{clip-path:url(#SVGID_00000118399516973075096290000016722531971005078711_);}
	.st2{fill:#9283FF;}
	.st3{fill:#ED4586;}
	.st4{opacity:0.4;}
	.st5{fill:#121B74;}
	.st6{fill:#F978A3;}
	.st7{fill:#FFFFFF;}
	.st8{fill:#D8D6E5;}
	.st9{fill:#F998C4;}
	.st10{opacity:0.6;}
</style>
<g id="BACKGROUND">
	<rect class="st0" width="650" height="500"/>
</g>
<g id="OBJECTS">
	<g>
		<defs>
			<rect id="SVGID_1_" width="650" height="500"/>
		</defs>
		<clipPath id="SVGID_00000129906188901351070620000016285696952629440419_">
			<use xlink:href="#SVGID_1_"  style="overflow:visible;"/>
		</clipPath>
		<g style="clip-path:url(#SVGID_00000129906188901351070620000016285696952629440419_);">
			<path class="st2" d="M330.5,471.62c-2.64,0-5.31-0.12-7.99-0.38c-18.63-1.8-35.97-10.08-52.74-18.08
				c-16.26-7.76-33.08-15.78-51.04-17.89c-20.46-2.41-40.95,2.99-60.77,8.2c-18.08,4.76-36.79,9.67-55.56,8.75
				c-37.3-1.84-66.51-24.54-97.43-48.58c-23-17.88-46.78-36.36-74.06-45.19c-20.05-6.49-40.92-7.39-60.36-2.61l-0.12-0.49
				c19.53-4.8,40.49-3.9,60.63,2.62c27.36,8.86,51.18,27.37,74.22,45.27c30.86,23.98,60,46.64,97.15,48.47
				c18.7,0.92,37.36-3.99,55.4-8.74c19.86-5.23,40.4-10.63,60.95-8.21c18.05,2.12,34.9,10.16,51.2,17.94
				c16.73,7.98,34.03,16.24,52.57,18.03c45.33,4.4,84.62-29.86,110.23-56.01c3.39-3.46,6.84-7.04,10.18-10.51
				c26.59-27.61,54.08-56.16,90.73-66.09c28.03-7.6,57.58-2.98,86.16,1.48c26.33,4.11,53.57,8.36,79.69,3.13
				c9.14-1.83,18.18-4.84,26.93-7.76c11.82-3.94,24.04-8.01,36.64-9.2c27.46-2.58,56.21,9.75,73.25,31.43l-0.39,0.31
				c-16.95-21.54-45.53-33.81-72.82-31.24c-12.54,1.18-24.73,5.24-36.52,9.17c-8.76,2.92-17.81,5.94-26.99,7.77
				c-26.21,5.25-53.49,0.99-79.87-3.12c-28.53-4.45-58.02-9.06-85.95-1.49c-36.51,9.89-63.96,38.39-90.5,65.96
				c-3.34,3.47-6.79,7.05-10.18,10.51C408.97,439.74,372.65,471.61,330.5,471.62z"/>
		</g>
		<g style="clip-path:url(#SVGID_00000129906188901351070620000016285696952629440419_);">
			<path class="st2" d="M204.66,410.96c-2.38,0-4.74-0.08-7.1-0.24c-24.29-1.67-44.63-11.86-57.3-28.7
				c-4.85-6.45-8.66-13.89-12.35-21.08c-6-11.72-12.21-23.83-22.97-31.46c-12.57-8.92-28.66-9.87-44.21-10.79
				c-14.79-0.88-30.09-1.78-42.61-9.46c-13.5-8.28-21.18-22.76-28.6-36.77c-2.94-5.54-5.97-11.27-9.33-16.54
				c-26.91-42.22-84.72-61.56-131.62-44.01l-0.17-0.47c47.1-17.63,105.18,1.8,132.21,44.21c3.37,5.28,6.41,11.02,9.35,16.57
				c7.39,13.95,15.04,28.37,28.42,36.58c12.41,7.61,27.64,8.51,42.38,9.38c15.62,0.92,31.78,1.88,44.47,10.88
				c10.86,7.7,17.1,19.87,23.13,31.64c3.68,7.17,7.48,14.59,12.3,21C168.55,418.8,225.88,416.97,263,394
				c6.22-3.85,12.25-8.28,18.07-12.56c9.88-7.26,20.09-14.76,31.54-19.65c20.19-8.62,42.69-8.59,64.48-8.58
				c11.58,0.01,23.55,0.03,35.1-1.25c49.63-5.49,92.55-34.46,134.06-62.48c11.03-7.45,22.44-15.15,33.76-22.25
				c18.76-11.77,43.81-26.02,71.29-31.68c41.78-8.62,87.42,3.77,119.11,32.34l-0.33,0.37c-31.57-28.46-77.04-40.8-118.67-32.22
				c-27.4,5.65-52.41,19.87-71.13,31.62c-11.31,7.1-22.71,14.8-33.74,22.24c-41.56,28.05-84.54,57.06-134.28,62.56
				c-11.57,1.28-23.56,1.26-35.15,1.25c-21.71-0.02-44.18-0.05-64.28,8.54c-11.39,4.87-21.58,12.35-31.44,19.59
				c-5.83,4.29-11.87,8.72-18.1,12.58C246.03,405.08,225.03,410.96,204.66,410.96z"/>
		</g>
		<g style="clip-path:url(#SVGID_00000129906188901351070620000016285696952629440419_);">
			<path class="st2" d="M189.47,532.97c-45.35,0-88-22.96-129.38-45.24c-4.09-2.2-8.17-4.4-12.22-6.56
				c-42.34-22.54-104.8-49.76-158.24-25.91l-0.2-0.46c53.64-23.93,116.25,3.33,158.68,25.92c4.06,2.16,8.13,4.35,12.23,6.56
				c45.59,24.54,92.72,49.92,143.24,44.42c15.24-1.66,30.2-6.21,44.66-10.61c10.98-3.34,22.33-6.79,33.76-8.97
				c31.25-5.97,63.84-2.66,95.36,0.54c35.81,3.63,72.84,7.39,107.64-2.62c28.32-8.14,53.45-24.95,77.76-41.2
				c5.06-3.38,10.29-6.88,15.45-10.24c28.37-18.43,62.35-37.06,99.2-35.59c21.08,0.84,41.33,8.36,60.9,15.63
				c17.6,6.54,35.8,13.3,54.61,15.22l-0.05,0.5c-18.87-1.93-37.1-8.7-54.74-15.25c-19.54-7.26-39.74-14.76-60.75-15.6
				c-36.76-1.47-70.61,17.13-98.91,35.51c-5.16,3.35-10.39,6.85-15.45,10.23c-24.34,16.27-49.5,33.1-77.9,41.27
				c-34.9,10.04-71.97,6.27-107.83,2.63c-31.48-3.2-64.04-6.5-95.22-0.55c-11.41,2.18-22.74,5.63-33.71,8.96
				c-14.49,4.41-29.47,8.96-44.76,10.63C198.88,532.72,194.16,532.97,189.47,532.97z"/>
		</g>
		<g style="clip-path:url(#SVGID_00000129906188901351070620000016285696952629440419_);">
			<path class="st0" d="M614.76,293.93l-8.46,73.91l-109.79-2.78v-64.24C496.51,300.82,551.71,250.81,614.76,293.93z"/>
			<path class="st3" d="M614.12,378.88c0,0,14.59,16.5,19.96,49.51s8.06,74.24,8.06,74.24H522.79l8.34-123.75H614.12z"/>
			<path class="st3" d="M525.7,356.51c0,0,55.22,11.81,80.74,8.55l7.68,13.82c0,0-28.94,32.96-91.33,17.63L525.7,356.51z"/>
			<g>
				<path class="st2" d="M636.09,170.95c-1.96,9.05-3.07,28.73-5.97,46.85c-2.9,18.11-8.31,36.34-8.96,37.49
					c-0.64,1.15-6.4,38.64-6.4,38.64s-31.86-12.16-57.26-12.56c-25.41-0.4-60.99,19.45-60.99,19.45s8.23-31.85,12.52-35.36
					c4.3-3.52,30.06-12.63,30.06-12.63c0.12-0.25,0.24-0.51,0.35-0.76c0.02-0.06,0.05-0.13,0.07-0.19c0.1-0.23,0.18-0.47,0.28-0.71
					c0-0.03,0.02-0.06,0.02-0.09c0.09-0.21,0.16-0.44,0.23-0.68c0.08-0.21,0.14-0.44,0.2-0.67c0.06-0.22,0.12-0.43,0.17-0.65
					c0-0.01,0.01-0.02,0-0.03c0.06-0.27,0.13-0.54,0.19-0.81c0.13-0.59,0.23-1.17,0.32-1.76c0.08-0.52,0.15-1.04,0.21-1.55
					c0.03-0.29,0.06-0.56,0.07-0.83c0.03-0.27,0.06-0.53,0.07-0.8c0.02-0.26,0.04-0.52,0.06-0.76c0.02-0.49,0.04-0.97,0.06-1.42
					c0.05-1.25,0.03-2.32,0-3.11c3.99,4.49,9.23,9.72,16.1,10c6.85-0.28,12.09-5.5,16.08-9.99c0.01-0.01,0.01-0.01,0.01-0.01
					c-0.06,1.6-0.06,4.4,0.32,7.39c0.36,2.86,1.07,5.9,2.42,8.24c3.01-10.28,19.07-23.67,20.87-30.54
					c1.79-6.87,12.28-49.01,12.28-49.01s-0.6-11.94,0.68-24.39c1.28-12.45,4.9-54.23,5.12-57.59c0.22-3.36-6.81-9.34-8.38-12.47
					c-1.57-3.14,0.34-11.3,0.31-13.99c-0.01-0.75,0.16-1.59,0.42-2.44c0.68-2.16,2.04-4.34,2.99-4.98c1.33-0.9,3.88-0.17,3.88-0.17
					c2.03-1.68,6.01-0.73,6.01-0.73s1.15-0.04,2.61,0.43c1.45,0.47,2.64,1.96,2.64,1.96c2.48-0.05,4.44,3.24,4.44,3.24
					s3.58,1.11,4.34,2.98c0.77,1.88,0.6,9.99,0.17,13.39c-0.43,3.41-2.22,8.45-2.22,8.45s2.82,19.96,3.58,35.48
					C636.85,138.78,638.05,161.89,636.09,170.95z"/>
				<path class="st2" d="M584.68,220.09c-2.02,3.36-5.34,4.12-5.34,4.12s-1.45,8.95-5.59,13.6c-0.06,0.06-0.11,0.12-0.17,0.18
					c-3.99,4.49-9.23,9.72-16.09,10c-6.87-0.28-12.1-5.5-16.1-10c-0.06-0.06-0.11-0.12-0.17-0.18c-4.12-4.66-5.58-13.6-5.58-13.6
					s-3.32-0.76-5.35-4.12c-2.03-3.37-3.61-14.62-0.81-15.23c0.09-0.02,0.18-0.04,0.28-0.05c1.57-0.25,2.76,0.34,3.45,0.84
					c0.12,0.09,0.22,0.17,0.3,0.25c0.08,0.06,0.17,0.1,0.25,0.15c1.67,0.71,3.76,0.21,4.93-1.16c1.03-1.21,1.38-2.95,2.66-3.88
					c0.73-0.53,1.67-0.72,2.42-1.23c1.32-0.91,1.78-2.62,2.73-3.9c1.07-1.44,2.83-2.32,4.61-2.33c1.4-0.01,2.84,0.48,4.17,0.05
					c0.52-0.17,0.98-0.47,1.4-0.82c0.59-0.49,1.11-1.09,1.68-1.59c1.14-1.02,2.74-1.76,4.2-1.28c0.58,0.19,1.08,0.56,1.65,0.8
					c0.47,0.19,0.96,0.29,1.46,0.32c0.72,0.06,1.45,0.03,2.18,0.02c1.23,0,2.58,0.17,3.44,1.03c1.23,1.22,1.09,3.38,2.32,4.59
					c0.19,0.19,0.42,0.35,0.65,0.48c0.09,0.06,0.17,0.1,0.27,0.15c0.65,0.32,1.37,0.52,2.02,0.86c1.45,0.75,2.49,2.23,2.71,3.84
					c0.13,0.94,0,1.91,0.29,2.83c0.03,0.09,0.06,0.17,0.1,0.26c0.44,0.49,0.98,0.87,1.57,1.03c0.29-0.29,0.88-0.78,1.74-1.09
					c0.68-0.24,1.53-0.36,2.51-0.15c0.11,0.03,0.21,0.06,0.3,0.12C588.17,206.33,586.63,216.85,584.68,220.09z"/>
				<path class="st4" d="M573.58,238.02c-0.14,0.43-4.95,14.08-13.55,15.27c-8.75,1.21-18.61-12.2-18.61-12.2l-0.01-0.02
					c0.04-1.23,0.03-2.29,0-3.07c3.99,4.49,9.23,9.72,16.1,10C564.35,247.72,569.59,242.51,573.58,238.02z"/>
				<path class="st4" d="M534.74,211.46c0.38,4.27,0.71,8.38,0.98,12.67C534.26,220.11,533.92,215.66,534.74,211.46L534.74,211.46z"
					/>
				<path class="st4" d="M529.13,210.02c-0.37-0.86,0.28-2.11,1.3-2.24c0.71-0.07,1.19,0.64,1.42,1.17c0.7,2.1,1.4,4.24,1.19,6.48
					c-0.16,1.45-0.8,2.75-0.66,4.18c0.05,0.68,0.32,1.35,0.86,1.84c-0.67-0.32-1.09-1.04-1.29-1.76c-0.47-2.16,0.66-4.23,0.15-6.38
					c-0.22-1.36-0.57-2.78-0.9-4.11c-0.15-0.4-0.34-0.86-0.76-0.92C529.65,208.31,529.02,209.15,529.13,210.02L529.13,210.02z"/>
				<path class="st4" d="M546.88,230.74c-0.38,0.36-0.9,0.59-1.44,0.73c-0.43,0.17-0.87,0.19-1.34,0.13h-0.01
					c-0.03,0-0.04-0.01-0.07-0.01c-0.08-0.02-0.17-0.03-0.25-0.05c-0.65-0.1-1.22-0.38-1.75-0.78c-0.65-0.41-1.21-0.9-1.64-1.35
					c-1.51-1.62-2.42-3.73-2.86-5.89c-0.42-2.08-0.55-4.28,0.53-6.18c0.96-1.67,2.47-3.35,4.54-3.36c2.08-0.01,3.78,1.48,4.44,3.37
					c0.79,2.25,0.32,4.75,0.31,7.08c-0.01,1.25,0.12,2.47,0.24,3.71C547.67,229.06,547.58,230.07,546.88,230.74z"/>
				<path class="st5" d="M555.45,222.7c0,0-0.71-1.76-2.06-1.58C552.03,221.3,552.63,221.82,555.45,222.7z"/>
				<path class="st4" d="M580.16,211.74c0.82,4.2,0.48,8.64-0.98,12.67C579.45,220.13,579.78,216.02,580.16,211.74L580.16,211.74z"
					/>
				<path class="st4" d="M585.77,210.3c0.1-0.87-0.52-1.7-1.33-1.74c-0.42,0.06-0.61,0.53-0.76,0.92c-0.32,1.33-0.68,2.75-0.9,4.11
					c-0.5,2.15,0.63,4.22,0.15,6.38c-0.2,0.72-0.62,1.44-1.29,1.76c0.55-0.48,0.81-1.16,0.86-1.84c0.14-1.43-0.5-2.73-0.66-4.18
					c-0.21-2.25,0.49-4.38,1.19-6.48c0.23-0.53,0.72-1.25,1.42-1.17C585.49,208.19,586.15,209.44,585.77,210.3L585.77,210.3z"/>
				<path class="st4" d="M568.02,231.02c0.38,0.36,0.9,0.59,1.44,0.73c0.43,0.17,0.87,0.19,1.34,0.13h0.01
					c0.03,0,0.04-0.01,0.07-0.01c0.08-0.02,0.17-0.03,0.25-0.05c0.65-0.1,1.22-0.38,1.75-0.78c0.65-0.41,1.21-0.9,1.64-1.35
					c1.51-1.62,2.42-3.73,2.86-5.89c0.42-2.08,0.55-4.28-0.53-6.18c-0.96-1.67-2.47-3.35-4.54-3.36c-2.08-0.01-3.78,1.48-4.44,3.37
					c-0.79,2.25-0.32,4.75-0.31,7.08c0.01,1.25-0.12,2.47-0.24,3.71C567.23,229.34,567.32,230.35,568.02,231.02z"/>
				<path class="st5" d="M559.45,222.98c0,0,0.71-1.76,2.06-1.58S562.27,222.1,559.45,222.98z"/>
				<path class="st3" d="M565.68,230.22c0,0-1.79,1.49-2.55,2.34c-1.76,1.97-3.58,2.03-5.52,2.03h-0.21c-1.94,0-3.77-0.05-5.52-2.03
					c-0.76-0.86-2.55-2.34-2.55-2.34s2.17-1.82,3.22-2.67c1.01-0.82,3.89-1.06,4.96,0.35c1.07-1.41,3.95-1.17,4.96-0.35
					C563.51,228.4,565.68,230.22,565.68,230.22z"/>
				<path class="st5" d="M582.99,205.01c-0.86,0.3-1.45,0.8-1.74,1.09c-0.59-0.17-1.13-0.54-1.57-1.03
					c-0.04-0.08-0.07-0.17-0.1-0.26c-0.29-0.91-0.16-1.89-0.29-2.83c-0.21-1.61-1.26-3.09-2.71-3.84c-0.64-0.33-1.36-0.53-2.02-0.86
					c-0.09-0.05-0.17-0.09-0.27-0.15c-0.23-0.13-0.46-0.29-0.65-0.48c-1.23-1.22-1.09-3.37-2.32-4.59
					c-0.87-0.87-2.21-1.03-3.44-1.03c-0.73,0.01-1.46,0.05-2.18-0.02c-0.51-0.04-0.99-0.13-1.46-0.32c-0.57-0.24-1.07-0.61-1.65-0.8
					c-1.45-0.48-3.06,0.26-4.2,1.28c-0.57,0.51-1.1,1.1-1.68,1.59c-0.42,0.35-0.87,0.65-1.4,0.82c-1.33,0.43-2.77-0.06-4.17-0.05
					c-1.79,0.01-3.54,0.89-4.61,2.33c-0.96,1.28-1.42,2.99-2.73,3.9c-0.75,0.52-1.69,0.7-2.42,1.23c-1.28,0.93-1.63,2.68-2.66,3.88
					c-1.17,1.37-3.27,1.87-4.93,1.16c-0.08-0.05-0.17-0.09-0.25-0.15c-0.08-0.07-0.18-0.16-0.3-0.25c2.26-4.03,4.71-7.94,7.33-11.76
					c1.25-1.81,2.54-3.61,4.08-5.18c3.42-3.52,8.07-5.85,12.96-6.35c2.23-0.22,4.5-0.05,6.67,0.5c2.59,0.64,5.04,1.81,7.13,3.47
					c1.88,1.5,3.45,3.35,4.85,5.29c2.62,3.63,4.72,7.62,6.22,11.84C582.65,203.97,582.83,204.48,582.99,205.01z"/>
				<path class="st3" d="M582.53,203.43l-0.06,0.02c-1.5-4.22-3.6-8.21-6.22-11.84c-1.4-1.94-2.97-3.79-4.85-5.29
					c-2.09-1.66-4.55-2.83-7.13-3.47c-2.17-0.54-4.45-0.72-6.67-0.5c-4.89,0.5-9.54,2.84-12.96,6.35c-1.54,1.57-2.83,3.37-4.08,5.18
					c-2.61,3.82-5.06,7.73-7.33,11.76c-0.69-0.5-1.88-1.09-3.45-0.84c-1.2-8.52,1.29-17.49,6.69-24.17c2.13-2.62,4.7-4.91,7.61-6.6
					c0,0,0.01,0,0.02-0.01c0.91-0.52,1.83-0.98,2.81-1.39c4.09-1.7,8.71-2.21,13.01-1.13c6.25,1.57,11.2,6.21,15.73,10.8
					c1.8,1.82,3.62,3.71,4.71,6.03c0.85,1.8,1.22,3.8,1.5,5.78C582.29,197.2,582.51,200.31,582.53,203.43z"/>
				<path class="st6" d="M586.67,201.32c-0.38,1.2-0.84,2.41-0.87,3.65c-0.09-0.06-0.19-0.09-0.3-0.12
					c-0.98-0.21-1.83-0.09-2.51,0.15c-0.16-0.52-0.33-1.04-0.52-1.56l0.06-0.02c-0.02-3.12-0.24-6.23-0.67-9.32
					c-0.28-1.98-0.65-3.98-1.5-5.78c-1.1-2.32-2.91-4.21-4.71-6.03c-4.53-4.58-9.48-9.22-15.73-10.8c-4.3-1.08-8.92-0.57-13.01,1.13
					c-0.98,0.41-1.9,0.87-2.81,1.39c1.22-1.66,2.54-3.35,4.38-4.27c1.41-0.71,3-0.91,4.54-1.26c2.43-0.55,4.77-1.53,7.23-1.92
					c5.84-0.95,11.75,1.39,16.73,4.56c2.05,1.3,4.06,2.81,5.28,4.91c0.83,1.4,1.24,3,1.66,4.57c0.89,3.39,1.79,6.77,2.68,10.16
					c0.4,1.54,0.81,3.09,0.9,4.68C587.62,197.44,587.26,199.43,586.67,201.32z"/>
				<path class="st7" d="M583.72,222.86c-0.19-0.56-1.09-0.35-0.9,0.21c0.77,2.29,1.24,4.68,1.33,7.1c0.08,2.1,0.05,4.47-0.99,6.36
					c-0.47,0.85-1.37,2.08-2.5,1.75c-0.94-0.28-1.44-1.38-1.7-2.24c-0.67-2.27-0.28-4.68,0.22-6.94c0.57-2.58,1.33-5.12,2.59-7.45
					c0.28-0.52-0.5-1-0.79-0.48c-1.28,2.37-2.08,4.95-2.66,7.57c-0.57,2.53-1.01,5.28-0.16,7.8c0.32,0.95,0.87,1.93,1.78,2.42
					c0.96,0.52,2.01,0.26,2.81-0.43c1.79-1.53,2.24-4.16,2.32-6.39C585.2,229.01,584.73,225.85,583.72,222.86z"/>
				<path class="st7" d="M536.68,231.54c-0.23-3.36-1.2-6.59-2.29-9.75c-0.19-0.56-1.09-0.35-0.9,0.21
					c1.69,4.87,3.17,10.2,1.77,15.33c-0.28,1.03-0.65,2.22-1.51,2.92c-0.42,0.34-0.99,0.55-1.53,0.48
					c-0.59-0.08-0.96-0.53-1.25-1.02c-1.32-2.23-1.26-4.97-0.91-7.45c0.41-2.95,1.17-5.86,2.19-8.66c0.2-0.56-0.68-0.81-0.88-0.26
					c-1.01,2.77-1.75,5.64-2.18,8.56c-0.41,2.76-0.48,5.84,1.02,8.31c0.58,0.95,1.45,1.58,2.6,1.42c1.16-0.16,2.04-0.98,2.57-1.98
					C536.65,237.24,536.86,234.19,536.68,231.54z"/>
				<path class="st4" d="M634.7,73.87c-0.06,0.34-1.25,5.77-4.12,6.8c-2.96,1.07-4.65-1.36-4.65-1.36c-2.3,0.85-3.88-2.31-3.88-2.31
					c-2.84,0.52-3.24-3.03-3.24-3.03c-2.82,0.77-3.88-1.32-3.88-1.32l0.52-5.5c0.81-0.51,3.41-3.76,4.77-6.41
					c0,0.05-0.01,0.09-0.02,0.14c-0.44,3.23-3.39,6.06-3.39,6.06s-1.19,5.2,0.94,5.59c2.14,0.39,3.03-11.56,3.03-11.56
					c2.54,5.59-3.63,13.84,0.6,14.88c4.23,1.05,4.6-15.39,4.6-15.39c3.09,8.7-4.26,18.58,0.3,17.4c4.57-1.17,3.88-14.29,3.88-14.29
					c3.59,4.8-2.77,15.14-0.72,15.87C631.4,80.14,634.51,74.22,634.7,73.87z"/>
				<path class="st4" d="M614.51,58.04l-6.88,5.15c0.68-2.16,2.04-4.34,2.99-4.98C611.95,57.31,614.51,58.04,614.51,58.04z"/>
			</g>
		</g>
		<g style="clip-path:url(#SVGID_00000129906188901351070620000016285696952629440419_);">
			<path class="st0" d="M86.59,324.53c0,0-22.24,37.3-23.8,89.06c-1.56,51.76-0.54,87.58-0.54,87.58l117.79,0.59l0.12-177.22H86.59z
				"/>
			<path class="st6" d="M139.37,295.28c0,0-25.83,4.85-48.18-0.82c0,0-0.45,11.01-0.7,14.87c-0.25,3.86-3.9,15.2-3.9,15.2
				s48.14,11.83,79.63,0L139.37,295.28z"/>
			<g>
				<path class="st5" d="M166.07,169.62c1.8,41.43-13.12,42.85-29.3,42.85s-29.3-19.18-29.3-42.85s13.12-42.85,29.3-42.85
					S165.04,145.98,166.07,169.62z"/>
				<path class="st6" d="M180.16,212.88c0,0-23.97,14.4-43.39,14.82c-19.43-0.42-24.22-21.35-24.22-21.35s0.92-0.36,3-3.39
					c0.6-0.89,1.31-2,2.12-3.41c0.15-0.26,0.29-0.53,0.43-0.81c0.12-0.26,0.25-0.51,0.35-0.78c0.03-0.06,0.05-0.12,0.08-0.2
					c0.1-0.23,0.19-0.47,0.27-0.72c0.01-0.03,0.03-0.05,0.03-0.09c0.09-0.22,0.16-0.45,0.23-0.69c0.08-0.22,0.14-0.45,0.2-0.68
					c0.06-0.22,0.12-0.44,0.18-0.66c0-0.01,0.01-0.02,0-0.03c0.07-0.27,0.13-0.55,0.2-0.82c0.13-0.59,0.24-1.19,0.33-1.78
					c0.09-0.53,0.15-1.06,0.21-1.57c0.04-0.29,0.06-0.57,0.08-0.84c0.03-0.27,0.05-0.54,0.07-0.81c0.02-0.27,0.04-0.52,0.05-0.78
					c0.03-0.5,0.04-0.98,0.06-1.44c0.04-1.27,0.03-2.36,0-3.16c4.05,4.56,9.36,9.86,16.33,10.14c6.95-0.28,12.27-5.58,16.31-10.13
					c0.01-0.01,0.01-0.01,0.01-0.01c-0.05,1.62-0.05,4.46,0.33,7.5c0.36,2.9,1.09,5.98,2.46,8.35c0.39,0.68,0.76,1.3,1.11,1.85
					C159.77,205.87,180.16,212.88,180.16,212.88z"/>
				<path class="st6" d="M164.36,165.52c-2.05,3.4-5.42,4.19-5.42,4.19s-1.48,9.08-5.67,13.81c-0.05,0.06-0.11,0.12-0.17,0.19
					c-4.04,4.56-9.36,9.86-16.32,10.14c-6.97-0.28-12.28-5.59-16.33-10.14c-0.06-0.06-0.12-0.12-0.17-0.19
					c-4.19-4.73-5.67-13.81-5.67-13.81s-3.37-0.78-5.43-4.19c-2.05-3.41-3.65-14.83-0.82-15.45c1.99-0.43,3.42,0.49,4.09,1.06h0.02
					c0.62-0.02,16.31-0.56,22.86-16.12c0,0,10.76,16.25,25.28,16.31h0.27c0.53-0.52,2.06-1.74,4.31-1.25
					C168.02,150.69,166.41,162.11,164.36,165.52z"/>
				<path class="st4" d="M153.08,183.71c-0.14,0.43-5.02,14.28-13.75,15.5c-8.88,1.23-18.89-12.38-18.89-12.38l-0.01-0.02
					c0.04-1.25,0.03-2.32,0-3.11c4.05,4.56,9.36,9.86,16.33,10.14C143.72,193.56,149.04,188.26,153.08,183.71z"/>
				<path class="st4" d="M113.68,156.77c0.39,4.34,0.72,8.51,0.99,12.85C113.19,165.54,112.85,161.03,113.68,156.77L113.68,156.77z"
					/>
				<path class="st4" d="M107.99,155.3c-0.38-0.88,0.29-2.14,1.32-2.28c0.72-0.07,1.21,0.65,1.45,1.19c0.71,2.13,1.42,4.3,1.21,6.58
					c-0.16,1.47-0.82,2.79-0.67,4.24c0.05,0.69,0.32,1.37,0.88,1.86c-0.68-0.32-1.1-1.05-1.3-1.78c-0.48-2.19,0.67-4.29,0.16-6.47
					c-0.22-1.38-0.58-2.82-0.91-4.17c-0.15-0.4-0.35-0.87-0.77-0.94C108.51,153.57,107.88,154.41,107.99,155.3L107.99,155.3z"/>
				<path class="st4" d="M126,176.33c-0.39,0.36-0.91,0.6-1.46,0.74c-0.43,0.17-0.89,0.2-1.36,0.13h-0.01
					c-0.03,0-0.04-0.01-0.07-0.01c-0.08-0.02-0.17-0.03-0.26-0.05c-0.66-0.11-1.24-0.39-1.77-0.79c-0.66-0.42-1.23-0.91-1.67-1.37
					c-1.53-1.64-2.46-3.79-2.9-5.98c-0.43-2.11-0.56-4.34,0.54-6.27c0.98-1.69,2.51-3.4,4.61-3.41c2.11-0.01,3.83,1.5,4.5,3.42
					c0.8,2.28,0.33,4.82,0.32,7.18c-0.01,1.27,0.12,2.51,0.24,3.77C126.79,174.62,126.7,175.65,126,176.33z"/>
				<path class="st5" d="M134.69,168.17c0,0-0.72-1.79-2.1-1.6S131.83,167.27,134.69,168.17z"/>
				<path class="st4" d="M159.76,157.05c0.83,4.26,0.49,8.77-0.99,12.85C159.05,165.56,159.37,161.39,159.76,157.05L159.76,157.05z"
					/>
				<path class="st4" d="M165.46,155.58c0.11-0.89-0.53-1.73-1.35-1.77c-0.42,0.07-0.62,0.54-0.77,0.94
					c-0.33,1.35-0.69,2.79-0.91,4.17c-0.51,2.18,0.64,4.28,0.16,6.47c-0.2,0.73-0.63,1.46-1.3,1.78c0.55-0.49,0.82-1.17,0.88-1.86
					c0.15-1.45-0.51-2.77-0.67-4.24c-0.21-2.28,0.5-4.45,1.21-6.58c0.23-0.54,0.73-1.27,1.45-1.19
					C165.17,153.45,165.84,154.71,165.46,155.58L165.46,155.58z"/>
				<path class="st4" d="M147.45,176.61c0.39,0.36,0.91,0.6,1.46,0.74c0.43,0.17,0.89,0.2,1.36,0.13h0.01
					c0.03,0,0.04-0.01,0.07-0.01c0.08-0.02,0.17-0.03,0.26-0.05c0.66-0.11,1.24-0.39,1.77-0.79c0.66-0.42,1.23-0.91,1.67-1.37
					c1.53-1.64,2.46-3.79,2.9-5.98c0.43-2.11,0.56-4.34-0.54-6.27c-0.98-1.69-2.51-3.4-4.61-3.41c-2.11-0.01-3.83,1.5-4.5,3.42
					c-0.8,2.28-0.33,4.82-0.32,7.18c0.01,1.27-0.12,2.51-0.24,3.77C146.65,174.9,146.74,175.93,147.45,176.61z"/>
				<path class="st5" d="M138.75,168.45c0,0,0.72-1.79,2.1-1.6C142.22,167.03,141.61,167.56,138.75,168.45z"/>
				<path class="st5" d="M145.07,175.8c0,0-1.82,1.51-2.59,2.38c-1.78,2-3.64,2.06-5.6,2.06h-0.21c-1.97,0-3.82-0.05-5.6-2.06
					c-0.77-0.87-2.59-2.38-2.59-2.38s2.2-1.84,3.26-2.71c1.03-0.83,3.95-1.07,5.04,0.35c1.08-1.43,4.01-1.19,5.04-0.35
					C142.87,173.95,145.07,175.8,145.07,175.8z"/>
				<ellipse class="st7" cx="137.56" cy="145.16" rx="2.23" ry="3.13"/>
			</g>
			<path class="st3" d="M184.32,210.68c-5.66-2.66-12.24-5.38-12.9-11.39c-0.55-5.01,0.55-18.82-0.85-33.6v-0.01
				c-2.06-21.59-9.47-45.22-35.24-46.39c0,0-23.07-1.6-31.95,22.74c-8.88,24.34-11.83,50.12-17.99,63.66
				c-6.16,13.55,5.45,57.92,29.29,86.14c22.71,26.9,60.78,40.48,64.29,41.7c0.18,0.06,0.27,0.09,0.27,0.09s12.26-6.67,9.67-43.52
				c-2.59-36.85-5.67-55.12,2.23-67.55C195.17,216.19,190.26,213.47,184.32,210.68z M137.56,221.12
				c-20.54-5.97-26.21-38.98-25.61-60.33c0.34-11.69,6.7-19.52,12.4-24.22c3.19-2.64,7.05-4.16,10.98-4.5
				c4.42-0.38,8.94,0.76,12.69,3.55c3.46,2.56,6.69,6.53,8.61,12.66c5.75,18.39-0.75,51.27,4.35,58.07
				c2.76,3.66,7.43,5.16,11.15,5.75c3.19,0.51,5.68,0.36,5.68,0.36S158.1,227.09,137.56,221.12z"/>
			<path class="st4" d="M191.13,222.55c-7.89,12.43-4.81,30.7-2.23,67.55c2.59,36.85-9.67,43.52-9.67,43.52s-0.09-0.03-0.27-0.09
				c-3.51-1.21-41.58-14.8-64.29-41.7c-23.83-28.22-35.45-72.59-29.29-86.14c0,0,13.66,62.43,45.35,57.54
				c31.69-4.88,47.07-50.77,47.07-50.77l6.5-1.79C190.26,213.47,195.17,216.19,191.13,222.55z"/>
			<path class="st4" d="M184.32,210.68l-6.5,1.79l-5.68-0.36c-3.72-0.59-8.4-2.09-11.15-5.75c-5.11-6.8,1.39-39.68-4.35-58.07
				c-1.92-6.14-5.15-10.1-8.61-12.66c-3.75-2.78-8.26-3.93-12.69-3.55v-0.07c0,0,22.18-4.59,35.24,33.67v0.01
				c1.4,14.77,0.3,28.59,0.85,33.6C172.07,205.3,178.66,208.02,184.32,210.68z"/>
			<g>
				<path class="st6" d="M49.15,171.55c-1.6,3.98-4.68,37.96-8.5,48.19c0,0,12.22-3.41,16.07-3.99l8.21,38.45
					c0,0-13.06,5.01-33.84,1.15c-20.79-3.87-24.24-3.62-23.01-12.49c1.23-8.88,1.81-19.31,8.55-35.66s14.67-34.87,15.53-41.24
					c0.86-6.37,0.62-18.94,2.3-23.91c1.68-4.97,6.13-7.64,7.73-7.47c1.6,0.16,2.54,2.79,2.54,2.79s3.98-2.59,5.83,0.74
					c0,0,1.48-1.44,2.79-1.64c1.31-0.2,2.71,0.74,2.71,0.74s0-0.01,0.01-0.03c0.13-0.25,1.38-2.63,3.6-1.77
					c2.34,0.9,3.12,4.76,3.12,4.76s4.85,4.27,5.1,5.91c0.14,0.96-0.73,3.71-1.85,6.53c-0.82,2.05-1.77,4.13-2.58,5.63
					C61.52,161.82,50.76,167.56,49.15,171.55z"/>
				<path class="st4" d="M60.12,147.6c1.92,2.53,2.57,3.41,2.57,3.47c0,0.1-2.53-3.06-2.53-3.06s-5.59,1.09-8.13,5.05
					c0,0-0.04-1.53,0.9-2.87c0,0-1.78-8.3,3.13-12.99c0,0,0-0.01,0.01-0.03c0.13-0.25,1.38-2.63,3.6-1.77
					c2.34,0.9,3.12,4.76,3.12,4.76s-3.47-2.34-4.76-2.09C56.74,138.32,54.38,140.04,60.12,147.6z"/>
				<path class="st4" d="M37.88,143.7c0,0-0.52,3.67,1.97,4.13c2.5,0.46,3.14,0,3.14,0s-1.23,1.2,1.42,2.28
					c2.65,1.08,2.77-0.55,2.77-0.55s1.42,3.73,4.85,3.51c0,0-6.3-3.94-1.48-14.96c0,0-4.23,5.1-4.23,9.66c0,0-0.74,1.6-1.39,1.11
					c-0.65-0.49-3.2-7.08-0.21-11.5c0,0-3.36,0.75-3.08,8.36C41.64,145.73,39.48,147.43,37.88,143.7z"/>
			</g>
		</g>
		<g style="clip-path:url(#SVGID_00000129906188901351070620000016285696952629440419_);">
			<g>
				<path class="st6" d="M558.11,518.2c-1.54-18.23-8.06-61.22-6.53-75.23c1.54-14.01-0.96-46.06-1.92-58.73
					c-0.96-12.67-3.77-46.38-8.32-54.38c-4.54-7.99-89.22-27.37-89.22-27.37s-16.21-14.01-18.94-22.71
					c-2.73-8.69-13.05-44-20.3-62.68c-6.06-15.6-19.49-48.1-23.75-58.39c-6.4,3.44-13.65,5.26-20.57,7.24
					c2.79,16.51,7.24,42.06,9.69,52.34c3.5,14.67,13.9,39.64,14.16,44.25c0.26,4.62,18.59,59.97,19.28,69.53
					c0.68,9.55,10.73,86.89,10.53,106.28c-0.19,19.38-19.19,60.83-18.81,115.53l154.68,1.92
					C558.11,555.81,559.65,536.43,558.11,518.2z"/>
				<path class="st4" d="M531.63,364.28c0,0-3.75,49.51-4.09,64.53s12.11,44.18,18.08,62.78c5.97,18.59,7.68,64.23,7.68,64.23
					s2.64-34.37-1.19-60.99c-3.84-26.61-19.45-50.92-16.04-74.04C539.47,397.68,539.81,355.54,531.63,364.28z"/>
			</g>
			<g>
				<path class="st7" d="M387.82,155.52l-8.27-23.8l-1.36-15.99c0,0-5.42-21.31-8.53-22.94c-3.11-1.63-6.74-1.16-8.1,0.63
					c0,0-3.32,0.43-4.14,1.19s-1.07,2.3-1.07,2.3s-3.75,0.96-4.05,2.35c-0.3,1.39-0.3,3.46-0.3,3.46s-1.79,0.77-1.88,3.49
					c-0.09,2.73,3.67,6.65,3.67,6.65s2.97,18.65,5.76,23.99c2.78,5.34,5.66,8.57,6.65,14.78c0.3,1.86,1.18,7.27,2.38,14.32
					c6.92-1.99,14.17-3.81,20.57-7.24C388.31,156.69,387.82,155.52,387.82,155.52z"/>
				<path class="st8" d="M360.48,100l1.95-2.19c0,0-1.41-1.97-0.88-4.38c0,0-2.05,3.28-2.17,4.52c-0.12,1.24-2.27,0.81-2.27,0.81
					s-1.01-0.93-0.77-1.83c0,0-2.69,1.62-2.13,4.61c0.55,2.99,1.86,4.28,1.86,4.28l1.02-0.87c0,0-2.09-3.02-0.92-4.1
					C357.35,99.76,360.48,100,360.48,100z"/>
				<path class="st8" d="M352,102.73c0,0-0.06,2.45,2.42,4.85l-1.21,1.58C353.21,109.16,349.43,106.53,352,102.73z"/>
			</g>
			<g>
				<path class="st5" d="M487.8,240.82c0,0-25.36,4.82-28.76,19.77c-3.4,14.95-4.75,46.67,27.31,47.27
					C518.41,308.46,524.32,241.59,487.8,240.82z"/>
				<path class="st7" d="M509.43,317.93c0,0-4.97,21.73-25.14,22.16c-20.17-0.43-25.15-22.16-25.15-22.16s0.96-0.38,3.11-3.52
					c0.63-0.92,1.36-2.08,2.2-3.54c0.16-0.27,0.3-0.55,0.44-0.84c0.13-0.27,0.26-0.53,0.37-0.81c0.03-0.06,0.06-0.13,0.08-0.2
					c0.1-0.24,0.19-0.49,0.29-0.75c0.01-0.03,0.03-0.06,0.03-0.09c0.09-0.23,0.17-0.47,0.24-0.72c0.08-0.23,0.15-0.47,0.21-0.71
					c0.06-0.23,0.13-0.46,0.18-0.69c0-0.01,0.01-0.02,0-0.03c0.07-0.29,0.14-0.57,0.2-0.86c0.14-0.62,0.25-1.23,0.34-1.85
					c0.09-0.55,0.16-1.1,0.22-1.63c0.04-0.3,0.06-0.59,0.08-0.87c0.03-0.28,0.06-0.56,0.07-0.84c0.02-0.28,0.04-0.54,0.06-0.81
					c0.03-0.52,0.05-1.01,0.06-1.49c0.05-1.32,0.03-2.45,0-3.28c4.21,4.73,9.72,10.24,16.96,10.53c7.22-0.29,12.74-5.79,16.94-10.52
					c0.01-0.01,0.01-0.01,0.01-0.01c-0.06,1.68-0.06,4.63,0.34,7.79c0.38,3.01,1.13,6.21,2.55,8.67c0.4,0.71,0.79,1.35,1.15,1.92
					C508.17,317.43,509.43,317.93,509.43,317.93z"/>
				<path class="st7" d="M512.93,275.54c-2.13,3.53-5.62,4.34-5.62,4.34s-1.54,9.43-5.89,14.33c-0.06,0.06-0.11,0.13-0.17,0.19
					c-4.2,4.73-9.72,10.24-16.95,10.53c-7.23-0.29-12.75-5.8-16.96-10.53c-0.06-0.06-0.12-0.13-0.17-0.19
					c-4.34-4.91-5.88-14.33-5.88-14.33s-3.5-0.81-5.63-4.34c-2.13-3.54-3.79-15.4-0.85-16.04c2.07-0.45,3.55,0.51,4.24,1.1
					c0,0,5.14-1.72,10.44-5.33c1.48-1.01,2.98-2.18,4.39-3.5c0.85-0.8,1.67-1.66,2.42-2.57c4.84-5.85,10.52-7.1,13.02-7.35
					c0.83-0.08,1.31-0.06,1.31-0.06s5.13,15.99,18.69,19.02c0.55-0.54,2.14-1.8,4.47-1.3C516.73,260.14,515.06,272,512.93,275.54z"
					/>
				<path class="st8" d="M501.22,294.42c-0.15,0.45-5.21,14.83-14.28,16.09c-9.21,1.28-19.61-12.85-19.61-12.85l-0.01-0.02
					c0.05-1.3,0.03-2.41,0-3.23c4.21,4.73,9.72,10.24,16.96,10.53C491.5,304.64,497.03,299.15,501.22,294.42z"/>
				<path class="st8" d="M460.32,266.45c0.4,4.5,0.74,8.83,1.03,13.34C459.81,275.55,459.45,270.87,460.32,266.45L460.32,266.45z"/>
				<path class="st8" d="M454.41,264.93c-0.39-0.91,0.3-2.22,1.37-2.36c0.74-0.08,1.26,0.67,1.5,1.24c0.74,2.21,1.47,4.46,1.25,6.83
					c-0.17,1.52-0.85,2.89-0.69,4.4c0.06,0.71,0.33,1.43,0.91,1.93c-0.71-0.33-1.15-1.09-1.35-1.85c-0.5-2.27,0.69-4.45,0.16-6.72
					c-0.23-1.44-0.6-2.93-0.95-4.33c-0.15-0.42-0.36-0.91-0.8-0.97C454.96,263.13,454.3,264.01,454.41,264.93L454.41,264.93z"/>
				<path class="st8" d="M473.1,286.76c-0.41,0.38-0.95,0.63-1.52,0.77c-0.45,0.17-0.92,0.2-1.41,0.14h-0.01
					c-0.03,0-0.05-0.01-0.07-0.01c-0.08-0.02-0.17-0.03-0.27-0.06c-0.68-0.11-1.29-0.4-1.84-0.82c-0.68-0.43-1.28-0.95-1.73-1.43
					c-1.59-1.7-2.55-3.93-3.01-6.2c-0.44-2.19-0.58-4.51,0.56-6.51c1.01-1.76,2.6-3.53,4.79-3.54c2.19-0.01,3.98,1.56,4.68,3.55
					c0.83,2.37,0.34,5.01,0.33,7.46c-0.01,1.32,0.13,2.6,0.25,3.91C473.93,284.98,473.84,286.05,473.1,286.76z"/>
				<path class="st5" d="M482.13,278.28c0,0-0.75-1.86-2.18-1.66C478.53,276.81,479.17,277.36,482.13,278.28z"/>
				<path class="st8" d="M508.16,266.74c0.86,4.42,0.51,9.1-1.03,13.34C507.42,275.58,507.76,271.25,508.16,266.74L508.16,266.74z"
					/>
				<path class="st8" d="M514.07,265.22c0.11-0.92-0.55-1.8-1.4-1.84c-0.44,0.07-0.65,0.56-0.8,0.97c-0.34,1.4-0.72,2.9-0.95,4.33
					c-0.53,2.27,0.66,4.45,0.16,6.72c-0.21,0.76-0.65,1.52-1.35,1.85c0.58-0.51,0.85-1.22,0.91-1.93c0.15-1.51-0.53-2.88-0.69-4.4
					c-0.22-2.37,0.52-4.62,1.25-6.83c0.24-0.56,0.76-1.31,1.5-1.24C513.77,263,514.47,264.31,514.07,265.22L514.07,265.22z"/>
				<path class="st8" d="M495.37,287.05c0.4,0.38,0.95,0.63,1.52,0.77c0.45,0.17,0.92,0.2,1.41,0.14h0.01
					c0.03,0,0.05-0.01,0.07-0.01c0.08-0.02,0.17-0.03,0.27-0.06c0.68-0.11,1.29-0.4,1.84-0.82c0.68-0.43,1.28-0.95,1.73-1.43
					c1.59-1.7,2.55-3.93,3.01-6.2c0.44-2.19,0.58-4.51-0.56-6.51c-1.01-1.76-2.6-3.53-4.79-3.54c-2.19-0.01-3.98,1.56-4.68,3.55
					c-0.83,2.37-0.34,5.01-0.33,7.46c0.01,1.32-0.13,2.6-0.25,3.91C494.55,285.28,494.64,286.35,495.37,287.05z"/>
				<path class="st5" d="M486.35,278.58c0,0,0.75-1.86,2.18-1.66C489.95,277.11,489.31,277.65,486.35,278.58z"/>
				<path class="st5" d="M492.9,286.21c0,0-1.89,1.56-2.69,2.47c-1.85,2.08-3.77,2.14-5.82,2.14h-0.22c-2.04,0-3.97-0.06-5.82-2.14
					c-0.8-0.9-2.69-2.47-2.69-2.47s2.28-1.91,3.39-2.82c1.07-0.87,4.1-1.11,5.23,0.37c1.12-1.48,4.16-1.23,5.23-0.37
					C490.62,284.29,492.9,286.21,492.9,286.21z"/>
				<path class="st3" d="M533.5,310.59c0,0-5.46-17.7-7.5-33.33c-2.04-15.63-5.2-57.17-34.63-58.96c0,0-25.62,1.19-30.76,10.4
					c-5.15,9.21-19.73,53.84-18.71,62.1c1.02,8.27,8.96,12.28,10.58,24.9c1.62,12.62,0.26,25.33,19.45,30.19
					c0,0,7.59,22.43,35.95,14.33c28.36-8.1,19.92-27.63,33.48-30.37C541.35,329.87,541.27,316.3,533.5,310.59z M486.35,307.86
					c0,0-19.34,1.22-25.75-25.17c-1.14-4.72-1.64-8.79-1.66-12.28c-0.13-16.03,9.44-20.04,9.44-20.04c14.85-4.8,28.66,0,28.66,0
					s0.01,0,0.04,0.02c0.83,0.38,15.21,7.32,12.64,26.87c-2.6,19.82-22.74,30.27-23.36,30.59
					C486.36,307.86,486.35,307.86,486.35,307.86z"/>
				<path class="st4" d="M533.5,310.59c0,0-5.62,44.01-61.58,35.31c-19.19-4.86-17.83-17.57-19.45-30.19
					c-1.62-12.62-9.55-16.63-10.58-24.9c-1.02-8.27,13.57-52.89,18.71-62.1c5.15-9.21,30.76-10.4,30.76-10.4
					c12.31,0.75,20.02,8.45,24.97,18.3c-38.22,3.98-47.95,13.77-47.95,13.77s-9.57,4-9.44,20.04c0.02,3.49,0.52,7.56,1.66,12.28
					c6.41,26.38,25.75,25.17,25.75,25.17s4.34,11.43,21.52,12.63C525.06,321.68,533.5,310.59,533.5,310.59z"/>
				<path class="st4" d="M516.44,278.05c0.51,21.45-29.15,29.56-30.07,29.8c0.63-0.32,20.76-10.77,23.36-30.59
					c2.57-19.55-11.81-26.49-12.64-26.87C497.99,250.68,515.94,256.81,516.44,278.05z"/>
			</g>
		</g>
		<g style="clip-path:url(#SVGID_00000129906188901351070620000016285696952629440419_);">
			<path class="st6" d="M33.47,386.67c0,0-14.6-2.6-24.96,26.61C2.99,428.82,0,516.19,0,516.19h152.15c0,0,3.26-41.32,0-55.16
				c-3.26-13.84-8.23-45.77-11.4-54.82c-3.17-9.05-17.1-12.82-17.1-12.82L33.47,386.67z"/>
			<ellipse class="st5" cx="75.98" cy="346.77" rx="27.33" ry="43.87"/>
			<path class="st7" d="M96.22,341.7c-0.34,0.12-0.55,0.17-0.55,0.17s-1.5,9.21-5.75,13.99c-0.06,0.07-0.11,0.13-0.18,0.19
				c-4.09,4.63-9.49,10-16.54,10.29c-7.07-0.29-12.45-5.66-16.56-10.29c0,0-0.01-0.01-0.02-0.03c-0.29-0.35-3.23-4.1-5.48-12.15
				c-0.01-0.04-0.02-0.08-0.03-0.11c-0.26-1.15-0.38-1.88-0.38-1.88s-0.04-0.01-0.12-0.03c-1.17-4.86-2.06-11.08-2.07-18.8
				c0,0,7.87-0.28,12.01-1.91c4.05-1.59,8.46-12.41,8.64-12.83c1.18,6.77-1.99,12.43-1.99,12.43l5.99-0.14
				c1.78-0.42,4.68-9.69,6.33-15.49c0.75-2.66,1.25-4.59,1.25-4.59c5.54,0.86,11.55,16.61,13.32,21.57
				c0.33,0.94,0.52,1.49,0.52,1.49C96.01,327.3,96.41,333.93,96.22,341.7z"/>
			<path class="st7" d="M117.96,390.65c0.19,15.19-41.98,36.86-41.98,36.86c-28.59-5.83-42.51-40.85-42.51-40.85l15.19-7.66
				c0,0,0.93-0.37,3.04-3.43c0.61-0.91,1.33-2.03,2.15-3.47c0.15-0.26,0.29-0.54,0.43-0.82c0.13-0.25,0.25-0.52,0.36-0.79
				c0.03-0.06,0.05-0.12,0.08-0.2c0.1-0.23,0.19-0.48,0.28-0.72c0.01-0.03,0.02-0.06,0.02-0.1c0.1-0.22,0.17-0.46,0.23-0.69
				c0.09-0.22,0.15-0.46,0.21-0.69c0.07-0.22,0.13-0.45,0.19-0.67c0-0.01,0.01-0.02,0-0.03c0.07-0.28,0.14-0.56,0.2-0.84
				c0.14-0.6,0.24-1.2,0.33-1.81c0.09-0.54,0.16-1.06,0.21-1.59c0.04-0.29,0.07-0.58,0.09-0.85c0.02-0.27,0.05-0.55,0.07-0.82
				c0.02-0.26,0.04-0.53,0.05-0.79c0.03-0.5,0.05-0.99,0.07-1.45c0.04-1.29,0.03-2.39,0-3.2c4.11,4.62,9.49,10,16.55,10.28
				c7.05-0.28,12.44-5.65,16.54-10.27c0.01-0.01,0.01-0.01,0.01-0.01c-0.06,1.65-0.06,4.52,0.33,7.6c0.37,2.94,1.1,6.06,2.49,8.46
				c0.4,0.69,0.77,1.32,1.12,1.88c2.66,4.27,3.9,4.94,4.04,5.01h0.01L117.96,390.65z"/>
			<path class="st8" d="M89.74,356.06c-0.14,0.44-5.09,14.48-13.94,15.71c-8.99,1.25-19.14-12.54-19.14-12.54l-0.01-0.02
				c0.04-1.27,0.03-2.35,0-3.15c4.11,4.62,9.49,9.99,16.55,10.28C80.25,366.04,85.64,360.68,89.74,356.06z"/>
			<path class="st8" d="M62.29,348.58c-0.4,0.37-0.93,0.61-1.48,0.75c-0.44,0.17-0.9,0.2-1.37,0.13h-0.01
				c-0.03,0-0.04-0.01-0.07-0.01c-0.08-0.02-0.17-0.03-0.26-0.05c-0.66-0.11-1.26-0.4-1.8-0.8c-0.66-0.42-1.25-0.93-1.69-1.39
				c-1.55-1.66-2.49-3.84-2.94-6.06c-0.43-2.14-0.57-4.4,0.55-6.35c0.99-1.72,2.54-3.44,4.67-3.46c2.14-0.01,3.88,1.52,4.56,3.47
				c0.81,2.31,0.33,4.89,0.32,7.28c-0.01,1.28,0.13,2.54,0.24,3.82C63.1,346.85,63.01,347.89,62.29,348.58z"/>
			<path class="st5" d="M71.1,340.31c0,0-0.73-1.81-2.12-1.62S68.2,339.4,71.1,340.31z"/>
			<path class="st8" d="M84.03,348.87c0.4,0.37,0.93,0.61,1.48,0.75c0.44,0.17,0.9,0.2,1.37,0.13h0.01c0.03,0,0.04-0.01,0.07-0.01
				c0.08-0.02,0.17-0.03,0.26-0.05c0.66-0.11,1.26-0.4,1.8-0.8c0.66-0.42,1.25-0.93,1.69-1.39c1.55-1.66,2.49-3.84,2.94-6.06
				c0.43-2.14,0.57-4.4-0.55-6.35c-0.99-1.72-2.54-3.44-4.67-3.46c-2.14-0.01-3.88,1.52-4.56,3.47c-0.81,2.31-0.33,4.89-0.32,7.28
				c0.01,1.28-0.13,2.54-0.24,3.82C83.22,347.13,83.31,348.18,84.03,348.87z"/>
			<path class="st5" d="M75.22,340.6c0,0,0.73-1.81,2.12-1.62S78.11,339.69,75.22,340.6z"/>
			<path class="st6" d="M81.61,348.04c0,0-1.84,1.53-2.62,2.41c-1.81,2.03-3.68,2.08-5.68,2.08H73.1c-1.99,0-3.87-0.05-5.68-2.08
				c-0.78-0.88-2.62-2.41-2.62-2.41s2.23-1.87,3.31-2.75c1.04-0.84,4-1.09,5.1,0.36c1.1-1.45,4.06-1.2,5.1-0.36
				C79.39,346.17,81.61,348.04,81.61,348.04z"/>
			<path class="st5" d="M123.66,393.39c0,0-10.72,4-13.71,13.64c-2.99,9.64-5.5,19.13-7.57,19.67c0,0-13.08-22.74-10.88-37.72
				c1.47-10.1,4.33-31.14,4.72-47.27c0.19-7.77-0.21-14.4-1.6-18.13c0,0-0.19-0.56-0.52-1.49c-1.77-4.97-7.78-20.72-13.32-21.57
				c0,0-0.5,1.93-1.25,4.59c-1.65,5.8-4.55,15.07-6.33,15.49l-5.99,0.14c0,0,3.17-5.66,1.99-12.43c-0.18,0.42-4.59,11.24-8.64,12.83
				c-4.14,1.63-12.01,1.91-12.01,1.91c0.01,7.72,0.9,13.94,2.07,18.8c0.16,0.66,0.32,1.3,0.5,1.91c0.01,0.03,0.02,0.07,0.03,0.11
				c2.25,8.05,5.18,11.8,5.48,12.15c0.01,0.02,0.02,0.03,0.02,0.03c1.44,13.41,0.65,38.07-3.01,47.18c-3.67,9.1-4.3,24.29-4.3,24.29
				c-6.11-0.82-7.85-12.76-11.85-25.51c-4-12.76-6.38-9.77-6.38-9.77l-8.68,4.07c-0.62-15.06,13.02-29.85,16.42-41.39
				c2.21-7.5,1.37-17.9,2.63-29.85c0.66-6.42,1.94-13.29,4.62-20.39c7.65-20.32,26.99-18.14,26.99-18.14s19.14,0.88,23.87,11.8
				c2.37,5.51,5.55,14.71,8.35,25.22c2.75,10.33,5.13,21.93,6,32.5C113.08,377.38,123.59,388.77,123.66,393.39z"/>
		</g>
		<g style="clip-path:url(#SVGID_00000129906188901351070620000016285696952629440419_);">
			<polygon class="st0" points="601.37,374.89 617.73,378.89 627.02,439.45 628.25,500 577.59,500 526.93,500 528.16,439.45 
				537.45,378.89 553.81,374.89 			"/>
			<path class="st5" d="M604.66,317.85c-0.97,5.91-3.94,11.34-8.94,14.75c-5.08,3.47-11.41,4.61-17.47,4.22
				c-3.49-0.23-6.94-0.93-10.31-1.86c-3.1-0.87-6.25-1.84-9.09-3.39c-3.87-2.1-6.73-5.59-7.96-9.69c-0.73-1.73-1.26-3.55-1.75-5.34
				c-0.86-3.14-1.7-6.32-1.91-9.58c-0.21-3.2,0.36-6.36,2.05-9.12c1.65-2.67,3.96-4.96,6.2-7.11c3.74-3.57,8.04-6.68,12.88-8.48
				c-1.23-2.46-2.13-5.15-2.18-7.92c-0.07-2.84,0.91-5.48,2.77-7.63c1.65-1.9,3.89-3.64,6.47-3.87c3.05-0.26,6.21,0.11,9.25,0.5
				c2.49,0.31,5.43,0.44,7.52,1.99c1.99,1.48,3.04,3.86,4.69,5.65c1.78,1.91,3.81,3.55,4.95,5.95c1.03,2.18,1.38,4.64,1.2,7.04
				c-0.19,2.41-0.81,5.02-2.24,7.02c-0.32,0.45-0.69,0.83-1.08,1.17c1.06,1.72,1.85,3.59,2.51,5.53
				C604.39,304.09,605.78,311.08,604.66,317.85z"/>
			<path class="st9" d="M601.36,374.89c0,0-15.63,40.19-23.77,40.19c-10.79-1.31-23.78-40.19-23.78-40.19s0.91-0.36,2.94-3.33
				c0.59-0.87,1.29-1.97,2.08-3.35c0.15-0.25,0.29-0.52,0.42-0.79c0.12-0.25,0.24-0.5,0.35-0.77c0.03-0.06,0.05-0.12,0.08-0.19
				c0.1-0.23,0.18-0.46,0.27-0.71c0.01-0.03,0.03-0.05,0.03-0.09c0.09-0.22,0.16-0.44,0.23-0.68c0.08-0.22,0.14-0.44,0.2-0.67
				c0.06-0.22,0.12-0.44,0.17-0.65c0-0.01,0.01-0.02,0-0.03c0.07-0.27,0.13-0.54,0.19-0.81c0.13-0.58,0.24-1.17,0.32-1.75
				c0.09-0.52,0.15-1.04,0.21-1.54c0.03-0.29,0.06-0.56,0.08-0.83c0.03-0.26,0.05-0.53,0.07-0.79c0.02-0.26,0.03-0.51,0.05-0.77
				c0.03-0.49,0.04-0.96,0.06-1.41c0.04-1.24,0.03-2.32,0-3.1c3.98,4.47,9.19,9.68,16.03,9.96c6.82-0.28,12.05-5.48,16.02-9.95
				c0.01-0.01,0.01-0.01,0.01-0.01c-0.05,1.59-0.05,4.38,0.32,7.36c0.36,2.85,1.07,5.88,2.41,8.2c0.38,0.67,0.75,1.28,1.09,1.82
				C600.17,374.42,601.36,374.89,601.36,374.89z"/>
			<path class="st9" d="M604.67,334.81c-2.01,3.34-5.31,4.1-5.31,4.1s-1.46,8.92-5.57,13.56c-0.06,0.06-0.11,0.11-0.17,0.18
				c-3.97,4.47-9.19,9.67-16.03,9.96c-6.84-0.28-12.05-5.49-16.03-9.96c-0.07-0.07-0.11-0.12-0.17-0.18
				c-4.1-4.64-5.56-13.56-5.56-13.56s-3.31-0.77-5.32-4.1c-2.01-3.35-3.58-14.56-0.8-15.17c1.96-0.44,3.37,0.47,4.02,1.03
				c0,0,3.67-6.14,3.67-10.83c0-4.69,7.23-14.37,19.49-13.84c12.28,0.53,14.42,1.75,17.8,7.89c3.37,6.14,2.29,13.81,6.57,16.98
				c0.53-0.51,2.02-1.7,4.24-1.22C608.26,320.24,606.69,331.46,604.67,334.81z"/>
			<path class="st4" d="M593.61,352.66c-0.14,0.43-4.93,14.02-13.5,15.22c-8.71,1.21-18.54-12.15-18.54-12.15l-0.01-0.02
				c0.04-1.23,0.03-2.28,0-3.06c3.98,4.47,9.19,9.68,16.03,9.96C584.41,362.33,589.64,357.13,593.61,352.66z"/>
			<path class="st4" d="M554.92,326.21c0.38,4.26,0.7,8.35,0.98,12.62C554.44,334.82,554.1,330.39,554.92,326.21L554.92,326.21z"/>
			<path class="st4" d="M549.33,324.77c-0.37-0.86,0.28-2.1,1.3-2.23c0.7-0.07,1.19,0.64,1.42,1.17c0.7,2.09,1.39,4.22,1.19,6.46
				c-0.16,1.44-0.8,2.74-0.66,4.16c0.05,0.68,0.32,1.35,0.86,1.83c-0.67-0.32-1.08-1.03-1.28-1.75c-0.47-2.15,0.66-4.21,0.15-6.35
				c-0.21-1.36-0.57-2.77-0.89-4.1c-0.15-0.4-0.34-0.86-0.76-0.92C549.85,323.07,549.23,323.9,549.33,324.77L549.33,324.77z"/>
			<path class="st4" d="M567.01,345.42c-0.38,0.36-0.9,0.59-1.44,0.73c-0.43,0.17-0.87,0.19-1.33,0.13h-0.01
				c-0.03,0-0.04-0.01-0.07-0.01c-0.08-0.02-0.17-0.03-0.25-0.05c-0.64-0.1-1.22-0.38-1.74-0.77c-0.64-0.41-1.21-0.9-1.64-1.35
				c-1.51-1.61-2.41-3.72-2.85-5.87c-0.42-2.07-0.55-4.27,0.53-6.15c0.96-1.66,2.46-3.33,4.53-3.35c2.07-0.01,3.76,1.47,4.42,3.36
				c0.78,2.24,0.32,4.74,0.31,7.05c-0.01,1.24,0.12,2.46,0.24,3.7C567.8,343.74,567.71,344.75,567.01,345.42z"/>
			<path class="st5" d="M575.55,337.4c0,0-0.71-1.75-2.06-1.57C572.14,336.01,572.75,336.53,575.55,337.4z"/>
			<path class="st4" d="M600.16,326.49c0.82,4.18,0.48,8.61-0.98,12.62C599.46,334.84,599.78,330.75,600.16,326.49L600.16,326.49z"
				/>
			<path class="st4" d="M605.76,325.05c0.1-0.87-0.52-1.7-1.33-1.74c-0.42,0.06-0.61,0.53-0.76,0.92c-0.32,1.33-0.68,2.74-0.89,4.1
				c-0.5,2.14,0.63,4.21,0.15,6.35c-0.2,0.72-0.61,1.43-1.28,1.75c0.54-0.48,0.81-1.15,0.86-1.83c0.14-1.43-0.5-2.72-0.66-4.16
				c-0.2-2.24,0.49-4.37,1.19-6.46c0.23-0.53,0.71-1.24,1.42-1.17C605.47,322.95,606.13,324.19,605.76,325.05L605.76,325.05z"/>
			<path class="st4" d="M588.07,345.7c0.38,0.36,0.9,0.59,1.44,0.73c0.43,0.17,0.87,0.19,1.33,0.13h0.01c0.03,0,0.04-0.01,0.07-0.01
				c0.08-0.02,0.17-0.03,0.25-0.05c0.64-0.1,1.22-0.38,1.74-0.77c0.64-0.41,1.21-0.9,1.64-1.35c1.51-1.61,2.41-3.72,2.85-5.87
				c0.42-2.07,0.55-4.27-0.53-6.15c-0.96-1.66-2.46-3.33-4.53-3.35c-2.07-0.01-3.76,1.47-4.42,3.36c-0.78,2.24-0.32,4.74-0.31,7.05
				c0.01,1.24-0.12,2.46-0.24,3.7C587.29,344.02,587.38,345.03,588.07,345.7z"/>
			<path class="st5" d="M579.54,337.68c0,0,0.71-1.75,2.06-1.57C582.95,336.29,582.34,336.8,579.54,337.68z"/>
			<path class="st0" d="M585.74,344.89c0,0-1.78,1.48-2.54,2.33c-1.75,1.97-3.57,2.02-5.5,2.02h-0.21c-1.93,0-3.75-0.05-5.5-2.02
				c-0.76-0.85-2.54-2.33-2.54-2.33s2.16-1.81,3.2-2.66c1.01-0.82,3.87-1.05,4.94,0.35c1.06-1.4,3.93-1.17,4.94-0.35
				C583.58,343.08,585.74,344.89,585.74,344.89z"/>
			<path class="st9" d="M537.45,378.89c0,0,6.75,5.08,5.43,22.08c-1.31,17-10.34,36.28-10.34,36.28s0,52.58-3.15,62.74h-28.22
				c0,0,3.07-60.23,3.16-72.5C504.41,415.24,500.29,381,537.45,378.89z"/>
			<path class="st9" d="M617.73,378.89c0,0-6.75,5.08-5.43,22.08c1.31,17,10.34,36.28,10.34,36.28s0,52.58,3.15,62.74h28.22
				c0,0-2.9-56.68-2.99-68.95S654.89,381,617.73,378.89z"/>
		</g>
		<g style="clip-path:url(#SVGID_00000129906188901351070620000016285696952629440419_);">
			<path class="st9" d="M145.65,488.15l-1.6,24.42c0,0-3.35,9.64,10.27,26.61l2.49-47.26L145.65,488.15z"/>
			<g>
				<path class="st9" d="M254.63,291.06c0,0-4.97,21.73-25.14,22.16c-20.17-0.43-25.15-22.16-25.15-22.16s0.96-0.38,3.11-3.52
					c0.63-0.92,1.36-2.08,2.2-3.54c0.16-0.27,0.3-0.55,0.44-0.84c0.13-0.27,0.26-0.53,0.37-0.81c0.03-0.06,0.06-0.13,0.08-0.2
					c0.1-0.24,0.19-0.49,0.29-0.75c0.01-0.03,0.03-0.06,0.03-0.09c0.09-0.23,0.17-0.47,0.24-0.72c0.08-0.23,0.15-0.47,0.21-0.71
					c0.06-0.23,0.13-0.46,0.18-0.69c0-0.01,0.01-0.02,0-0.03c0.07-0.29,0.14-0.57,0.2-0.86c0.14-0.62,0.25-1.23,0.34-1.85
					c0.09-0.55,0.16-1.1,0.22-1.63c0.04-0.3,0.06-0.59,0.08-0.87c0.03-0.28,0.06-0.56,0.07-0.84c0.02-0.28,0.04-0.54,0.06-0.81
					c0.03-0.52,0.05-1.01,0.06-1.49c0.05-1.32,0.03-2.45,0-3.28c4.21,4.73,9.72,10.24,16.96,10.53c7.22-0.29,12.74-5.79,16.94-10.52
					c0.01-0.01,0.01-0.01,0.01-0.01c-0.06,1.68-0.06,4.63,0.34,7.79c0.38,3.01,1.13,6.21,2.55,8.67c0.41,0.71,0.79,1.35,1.15,1.92
					C253.37,290.56,254.63,291.06,254.63,291.06z"/>
				<path class="st9" d="M258.13,248.67c-2.13,3.53-5.62,4.34-5.62,4.34s-1.54,9.43-5.89,14.33c-0.06,0.06-0.11,0.13-0.17,0.19
					c-4.2,4.73-9.72,10.24-16.95,10.53c-7.23-0.29-12.75-5.8-16.96-10.53c-0.06-0.06-0.12-0.13-0.17-0.19
					c-4.34-4.91-5.88-14.33-5.88-14.33s-3.5-0.81-5.63-4.34c-2.13-3.54-3.79-15.4-0.85-16.04c2.07-0.45,3.55,0.51,4.24,1.1
					c2.09,1.32,5.03,1.18,6.95-0.39c2.16-1.75,2.87-4.8,4.9-6.69c3.08-2.88,8.2-2.3,11.55-4.87c0.32-0.25,0.64-0.54,0.81-0.92
					c0.33-0.68,0.12-1.51,0.35-2.24c0.5-1.6,2.59-1.86,4.11-2.53c1.89-0.84,3.14-2.8,3.33-4.83l0.34,0.04
					c-0.41,4.57,2.19,9.28,6.28,11.39c2.44,1.24,5.45,1.76,7.07,3.97c1.01,1.4,1.24,3.21,1.96,4.79c0.52,1.11,1.49,2.17,2.61,2.49
					c0.55-0.54,2.14-1.8,4.47-1.3C261.93,233.27,260.27,245.13,258.13,248.67z"/>
				<path class="st5" d="M286.4,263.03c-3.27,1.83-6.24,4.18-8.77,6.95c-1.93,2.12-3.65,4.49-5.96,6.18
					c-4.92,3.59-11.65,3.42-17.14,6.08c-1.68,0.81-3.31,2.01-4.04,3.68c-0.36-0.57-0.75-1.22-1.15-1.92
					c-1.42-2.46-2.17-5.66-2.55-8.67c-0.4-3.16-0.4-6.1-0.34-7.79c0.06-0.06,0.12-0.13,0.17-0.19c4.35-4.91,5.89-14.33,5.89-14.33
					s3.5-0.81,5.62-4.34c2.14-3.54,3.8-15.4,0.86-16.04c-2.34-0.51-3.92,0.75-4.47,1.3c-1.12-0.32-2.1-1.38-2.61-2.49
					c-0.72-1.57-0.95-3.39-1.96-4.79c-1.62-2.21-4.63-2.72-7.07-3.97c-4.09-2.11-6.68-6.81-6.28-11.39l-0.34-0.04
					c-0.19,2.03-1.45,3.99-3.33,4.83c-1.53,0.67-3.62,0.93-4.11,2.53c-0.23,0.73-0.02,1.56-0.35,2.24
					c-0.17,0.38-0.49,0.67-0.81,0.92c-3.35,2.57-8.47,1.99-11.55,4.87c-2.03,1.9-2.73,4.94-4.9,6.69c-1.92,1.56-4.86,1.7-6.95,0.39
					c-0.69-0.59-2.17-1.55-4.24-1.1c-2.95,0.64-1.28,12.5,0.85,16.04c2.14,3.53,5.63,4.34,5.63,4.34s1.54,9.43,5.88,14.33
					c0.06,0.06,0.11,0.13,0.17,0.19c0.03,0.83,0.05,1.96,0,3.28c-0.01,0.47-0.03,0.98-0.06,1.49c-0.02,0.27-0.04,0.53-0.06,0.81
					c-0.02,0.28-0.05,0.56-0.07,0.84c-0.02,0.29-0.05,0.57-0.08,0.87c-0.06,0.53-0.13,1.08-0.22,1.63c-0.09,0.62-0.2,1.23-0.34,1.85
					c-0.06,0.29-0.13,0.57-0.2,0.86c0.01,0.01,0,0.02,0,0.03c-0.06,0.23-0.12,0.46-0.18,0.69c-0.06,0.24-0.13,0.48-0.21,0.71
					c-0.07,0.24-0.15,0.49-0.24,0.72c0,0.04-0.02,0.06-0.03,0.09c-0.09,0.26-0.18,0.51-0.29,0.75c-0.03,0.07-0.06,0.14-0.08,0.2
					c-0.12,0.28-0.24,0.55-0.37,0.81c-0.14,0.29-0.29,0.57-0.44,0.84c-0.84,1.46-1.57,2.62-2.2,3.54c-2.15,3.14-3.11,3.52-3.11,3.52
					s-8.83,3.58-19.27,4c-0.83,0.04-1.61,0.09-2.36,0.16c-8.68,0.8-11.97,3.72-11.97,3.72c-2.18-2.79-4.48-5.96-4.18-9.49
					c0.36-4.03,4.01-7.12,4.67-11.1c0.54-3.29-1.04-6.61-0.67-9.92c0.56-5.05,5.38-8.53,7.19-13.29c2.67-7.01-1.72-15.01,0.05-22.31
					c1.52-6.28,7.21-10.63,10.01-16.45c1.25-2.6,1.91-5.45,3.3-7.97c1.98-3.61,5.44-6.36,9.4-7.48c2.25-0.64,4.69-0.78,6.67-2.01
					c2.31-1.41,3.6-4,5.57-5.86c3.86-3.63,10.45-3.77,14.51-0.42c0.36-0.23,0.76-0.41,1.18-0.49c1.17-0.24,2.37,0,3.55,0
					c1.7,0,3.42-0.5,5.09-0.13c3.92,0.87,5.66,5.99,9.53,7.1c1.01,0.29,2.1,0.27,3.13,0.53c2.24,0.58,3.88,2.44,5.38,4.2
					c3.19,3.74,6.56,7.93,6.57,12.84c0,2.79-1.1,5.67-0.17,8.3c1.04,2.91,4.22,4.51,5.74,7.2c1.29,2.26,1.26,5.02,1.58,7.61
					c0.32,2.6,1.28,5.44,3.63,6.58c1.92,0.93,4.27,0.46,6.25,1.26c2.76,1.11,4.01,4.35,4.29,7.31c0.07,0.82,0.13,1.7,0.65,2.34
					c0.37,0.43,0.9,0.67,1.36,1C286.47,259.32,287.02,261.38,286.4,263.03z"/>
				<path class="st4" d="M246.43,267.55c-0.15,0.45-5.21,14.83-14.28,16.09c-9.21,1.28-19.61-12.85-19.61-12.85l-0.01-0.02
					c0.05-1.3,0.03-2.41,0-3.23c4.21,4.73,9.72,10.24,16.96,10.53C236.71,277.78,242.23,272.28,246.43,267.55z"/>
				<path class="st4" d="M205.53,239.58c0.4,4.5,0.74,8.83,1.03,13.34C205.02,248.69,204.66,244.01,205.53,239.58L205.53,239.58z"/>
				<path class="st4" d="M199.61,238.06c-0.39-0.91,0.3-2.22,1.37-2.36c0.74-0.08,1.26,0.67,1.5,1.24c0.74,2.21,1.47,4.46,1.25,6.83
					c-0.17,1.52-0.85,2.89-0.69,4.4c0.06,0.71,0.33,1.43,0.91,1.93c-0.71-0.33-1.15-1.09-1.35-1.85c-0.5-2.27,0.69-4.45,0.16-6.72
					c-0.23-1.44-0.6-2.93-0.95-4.33c-0.15-0.42-0.36-0.91-0.8-0.97C200.16,236.26,199.5,237.14,199.61,238.06L199.61,238.06z"/>
				<path class="st4" d="M218.31,259.89c-0.41,0.38-0.95,0.63-1.52,0.77c-0.45,0.17-0.92,0.2-1.41,0.14h-0.01
					c-0.03,0-0.05-0.01-0.07-0.01c-0.08-0.02-0.17-0.03-0.27-0.06c-0.68-0.11-1.29-0.41-1.84-0.82c-0.68-0.43-1.28-0.95-1.73-1.43
					c-1.59-1.7-2.55-3.93-3.01-6.2c-0.44-2.19-0.58-4.51,0.56-6.51c1.01-1.76,2.6-3.53,4.79-3.54c2.19-0.01,3.98,1.56,4.68,3.55
					c0.83,2.37,0.34,5.01,0.33,7.46c-0.01,1.32,0.13,2.6,0.25,3.91C219.14,258.11,219.05,259.18,218.31,259.89z"/>
				<path class="st5" d="M227.34,251.42c0,0-0.75-1.86-2.18-1.66C223.73,249.95,224.37,250.49,227.34,251.42z"/>
				<path class="st4" d="M253.37,239.88c0.86,4.42,0.51,9.1-1.03,13.34C252.62,248.71,252.96,244.38,253.37,239.88L253.37,239.88z"
					/>
				<path class="st4" d="M259.28,238.35c0.11-0.92-0.55-1.8-1.4-1.84c-0.44,0.07-0.65,0.56-0.8,0.97c-0.34,1.4-0.72,2.9-0.95,4.33
					c-0.53,2.27,0.66,4.45,0.16,6.72c-0.21,0.76-0.65,1.52-1.35,1.85c0.58-0.51,0.85-1.22,0.91-1.93c0.15-1.51-0.53-2.88-0.69-4.4
					c-0.22-2.37,0.52-4.62,1.25-6.83c0.24-0.56,0.76-1.31,1.5-1.24C258.98,236.13,259.67,237.44,259.28,238.35L259.28,238.35z"/>
				<path class="st4" d="M240.58,260.19c0.41,0.38,0.95,0.63,1.52,0.77c0.45,0.17,0.92,0.2,1.41,0.14h0.01
					c0.03,0,0.05-0.01,0.07-0.01c0.08-0.02,0.17-0.03,0.27-0.06c0.68-0.11,1.29-0.4,1.84-0.82c0.68-0.43,1.28-0.95,1.73-1.43
					c1.59-1.7,2.55-3.93,3.01-6.2c0.44-2.19,0.58-4.51-0.56-6.51c-1.01-1.76-2.6-3.53-4.79-3.54c-2.19-0.01-3.98,1.56-4.68,3.55
					c-0.83,2.37-0.34,5.01-0.33,7.46c0.01,1.32-0.13,2.6-0.25,3.91C239.75,258.41,239.84,259.48,240.58,260.19z"/>
				<path class="st5" d="M231.56,251.71c0,0,0.75-1.86,2.18-1.66C235.16,250.24,234.52,250.78,231.56,251.71z"/>
				<path class="st0" d="M238.11,259.34c0,0-1.89,1.56-2.69,2.47c-1.85,2.08-3.77,2.14-5.82,2.14h-0.22c-2.04,0-3.97-0.06-5.82-2.14
					c-0.8-0.9-2.69-2.47-2.69-2.47s2.28-1.91,3.39-2.82c1.07-0.87,4.1-1.11,5.23,0.37c1.12-1.48,4.16-1.23,5.23-0.37
					C235.83,257.42,238.11,259.34,238.11,259.34z"/>
			</g>
			<g>
				<path class="st3" d="M290.2,553.89H154.33c0,0-0.37-32.04,2.48-61.97c0.06-0.71,0.13-1.42,0.2-2.13
					c0.72-7.09,1.99-13.74,3.53-19.78c5.06-19.96,12.98-33.19,12.98-33.19s9.79,7.87,16.89,13.05c7.11,5.18,46.06-15.35,46.06-15.35
					c9.78,6.14,36.46,0,36.46,0s8.06,19,13.73,41.07C292.32,497.67,290.2,553.89,290.2,553.89z"/>
				<path class="st10" d="M225.33,553.89c0,0-2.22-38.68-8.44-51.39c-6.23-12.71-18.68-30.36-37.87-25.42s10.4,3.82,14.33,8.93
					c3.93,5.12-8.06,3.68-7.87,6.08c0.19,2.4,8.16,1.34,8.38,2.88c0.22,1.54-14.97,3.01-13.82,6.78c1.15,3.77,20.89-2.88,24.5,2.11
					c3.61,4.99,4.67,30.79-8.47,50.03H225.33z"/>
				<path class="st10" d="M184.13,447.81c-2.13,10.02-9.96,18.89-19.65,22.2C172.02,463.39,178.48,456.12,184.13,447.81
					L184.13,447.81z"/>
				<path class="st10" d="M255.92,440.99c7.87,10.59,15.4,21.53,26.82,28.61C269.41,466,260.35,453.48,255.92,440.99L255.92,440.99z
					"/>
			</g>
			<g>
				<path class="st9" d="M381.85,118.33c0,0,1.04,3.4-0.43,3.8c-1.42,0.39-3.64,1.37-7.93-9.66c0.84-1.53,1.38-2.91,1.36-3.95
					c-0.03-2.08-1.69-1.72-3.81-0.52c-0.57-1.12-2.81-5.48-3.14-6.14c-0.39-0.76-7.43-1.88-7.43-1.88s3.78-4.81,6.06-4.91
					c2.28-0.08,8.58,0,11.01,1.03c2.43,1.02,3.16,6.61,3.16,6.61s1.77,2.49,2.38,5.84C383.7,111.92,385.39,117.57,381.85,118.33z"/>
				<path class="st4" d="M381.85,118.33c0,0-3.12-11.21-4.08-12.75s-8.81-1.64-8.81-1.64s7.34-1.98,10.35,0.68
					C382.32,107.28,381.85,118.33,381.85,118.33z"/>
				<path class="st4" d="M380.7,102.73c0,0-9.32-3.8-13.03-3.48c0,0,5.89-1.2,12.57,1.27L380.7,102.73z"/>
				<path class="st4" d="M370.22,106.39l3.28,6.09l1.36,3.26c0,0,1.49-4.23-0.09-7.88C373.19,104.21,370.22,106.39,370.22,106.39z"
					/>
				<path class="st9" d="M373.49,112.48c-2.84,5.15-9.13,11.87-9.13,11.87c1.28,8.74-3.66,15.01-3.66,15.01l-1.79,25.84
					c-14.46,0.39-18.93-5.12-18.93-5.12l5.88-23.28c0,0,1.45-11.05,3.63-19.5c2.17-8.44,7.61-12.36,7.61-12.36
					c0.84,1.75,5.7,3.36,5.7,3.36l0.72,4.89c1.83-1.11,5.01-3.75,7.54-5.18c2.12-1.21,3.78-1.56,3.81,0.52
					C374.87,109.57,374.33,110.95,373.49,112.48z"/>
				<polygon class="st4" points="363.51,113.2 355.26,120.17 362.79,108.31 				"/>
			</g>
			<path class="st2" d="M358.65,211.56c-0.26,7-0.7,25.36-3.45,32.21c-2.75,6.84-23.35,31.66-31.99,46.06
				c-8.63,14.39-30.26,31.15-34.93,37.96c-4.67,6.81-11.76,20.77-10.24,37.91c1.54,17.15,0.77,30.58-1.28,37.1
				c-2.04,6.53,12.2,22.69-3.84,31.73c0,0-26.68,6.14-36.46,0c0,0-38.95,20.54-46.06,15.35c-7.1-5.18-16.89-13.05-16.89-13.05
				s-7.92,13.24-12.98,33.19c-1.54,6.04-2.81,12.69-3.53,19.78c-0.07,0.71-0.14,1.42-0.2,2.13l-13.1-4.44c0,0-5.25-9.08-3.84-19.7
				c1.41-10.62-4.73-24.44-1.54-37.36c3.2-12.92,9.72-32.12,8.44-52.2c-1.28-20.08-4.47-40.43,5.89-58.86
				c10.36-18.42,18.09-20.43,18.09-20.43s3.29-2.92,11.97-3.72c0.75-0.06,1.53-0.12,2.36-0.16c10.45-0.42,19.27-4,19.27-4
				s4.98,21.73,25.15,22.16c20.17-0.43,25.14-22.16,25.14-22.16s-1.26-0.5-4.15-5.14c0.73-1.68,2.37-2.87,4.04-3.68
				c5.49-2.66,12.21-2.49,17.14-6.08c2.32-1.68,4.03-4.06,5.96-6.18c2.53-2.77,5.5-5.12,8.77-6.95c0,0,5.6-3.34,10.71-4.56
				s5.05-14.08,14.32-22.49c0,0,7.68-14.19,8.83-24.73c1.15-10.54,7.61-24.36,11.39-30.57c3.77-6.2,0.39-19.01,8.32-20.6
				c0,0,7.1,5.05,18.93,5.12c0,0,3.2,3.65,3.84,11.9C363.39,185.36,358.9,204.55,358.65,211.56z"/>
		</g>
	</g>
</g>
</svg>
